<svg xmlns="http://www.w3.org/2000/svg" width="889" height="742" fill="none"><path fill="url(#a)" d="M88.47 544V167.19H0v-46.73a412.4 412.4 0 0 0 44.86-5.6c13.29-2.91 25.12-7.69 35.5-14.33C90.77 93.47 99.9 83.29 107.79 70h46.73v474H88.47Z"/><path fill="url(#b)" d="M470.55 38.53c46.07 0 90.44 14 129.69 38.52l-35.84 42.03c-27.3-17.5-61.43-26.26-93.85-26.26-105.8 0-192.82 89.3-192.82 197.88 0 110.33 87.02 197.9 192.82 197.9s192.82-89.32 192.82-197.9c0-36.77-10.23-71.8-29-103.32l32.42-47.28c32.42 43.78 49.48 94.57 47.78 150.6 0 140.1-110.92 252.18-245.72 252.18-59.73 0-116.04-22.76-160.4-61.3l-1.71-1.74-51.2 50.78 11.95 12.26L98.56 711l-47.78-54.29L218 488.6l13.66 12.26 47.78-49.03v-3.5c-35.84-43.78-54.61-99.82-54.61-157.62 0-140.1 110.92-252.17 245.72-252.17ZM747 0C632.71 96.28 470.7 427.04 470.56 427.3c-46.04-118.99-138.07-213.5-138.22-213.65 56.3 0 138.22 54.29 138.22 54.29C654.64 33.54 746.79.07 746.99 0Z"/><path fill="#076B9C" d="M261.9 647.8a38.49 38.49 0 0 1-12.56-2.08 17.49 17.49 0 0 1-4.64-2.48l2.72-6.96c1.33.85 2.8 1.6 4.4 2.24a30.9 30.9 0 0 0 4.96 1.36c1.7.27 3.36.4 4.96.4 2.77 0 4.83-.37 6.16-1.12 1.39-.8 2.08-1.92 2.08-3.36 0-1.23-.43-2.16-1.28-2.8-.8-.64-2.1-1.1-3.92-1.36l-8.4-1.44c-3.52-.59-6.19-1.84-8-3.76a10.07 10.07 0 0 1-2.72-7.2c0-2.5.7-4.7 2.08-6.56a13.68 13.68 0 0 1 6-4.4c2.61-1.07 5.7-1.6 9.28-1.6 1.92 0 3.81.19 5.68.56 1.92.32 3.68.83 5.28 1.52 1.65.64 3.07 1.47 4.24 2.48l-2.88 6.96a14.07 14.07 0 0 0-3.6-2.16 23.92 23.92 0 0 0-4.32-1.36c-1.5-.32-2.93-.48-4.32-.48-2.77 0-4.83.43-6.16 1.28-1.33.8-2 1.92-2 3.36 0 1.17.37 2.1 1.12 2.8.8.64 2.03 1.1 3.68 1.36l8.24 1.44c3.79.64 6.61 1.87 8.48 3.68 1.87 1.76 2.8 4.16 2.8 7.2 0 2.61-.72 4.85-2.16 6.72a13.71 13.71 0 0 1-6.08 4.32c-2.56.96-5.6 1.44-9.12 1.44Zm44.45 0c-4.16 0-7.79-.83-10.88-2.48a18.13 18.13 0 0 1-7.12-7.2c-1.65-3.1-2.48-6.72-2.48-10.88 0-4.21.83-7.84 2.48-10.88a17.6 17.6 0 0 1 7.12-7.12c3.1-1.7 6.72-2.56 10.88-2.56 4.21 0 7.84.85 10.88 2.56a17.1 17.1 0 0 1 7.04 7.12c1.7 3.1 2.56 6.72 2.56 10.88 0 4.16-.85 7.79-2.56 10.88-1.65 3.1-4 5.5-7.04 7.2-3.04 1.65-6.67 2.48-10.88 2.48Zm0-8.16c3.15 0 5.63-1.07 7.44-3.2 1.81-2.19 2.72-5.28 2.72-9.28 0-4-.9-7.04-2.72-9.12-1.81-2.13-4.3-3.2-7.44-3.2-3.1 0-5.57 1.07-7.44 3.2-1.81 2.08-2.72 5.12-2.72 9.12 0 4 .9 7.1 2.72 9.28 1.87 2.13 4.35 3.2 7.44 3.2Zm29.81 7.36v-39.52h9.76v8.08h-.4c.7-1.81 1.68-3.36 2.96-4.64a13.62 13.62 0 0 1 4.56-3.12 14.6 14.6 0 0 1 5.76-1.12c3.2 0 5.84.77 7.92 2.32a11.78 11.78 0 0 1 4.4 6.64h-.64a14.13 14.13 0 0 1 5.2-6.4c2.4-1.7 5.28-2.56 8.64-2.56 2.99 0 5.5.61 7.52 1.84a10.79 10.79 0 0 1 4.56 5.44c1.07 2.45 1.6 5.55 1.6 9.28V647h-10.32v-23.36c0-2.93-.5-5.1-1.52-6.48-.96-1.44-2.67-2.16-5.12-2.16-1.81 0-3.41.43-4.8 1.28a8.08 8.08 0 0 0-3.04 3.6c-.7 1.5-1.04 3.28-1.04 5.36V647h-10.24v-23.36c0-2.93-.53-5.1-1.6-6.48-1.01-1.44-2.7-2.16-5.04-2.16-1.81 0-3.39.45-4.72 1.36a8.8 8.8 0 0 0-3.04 3.6c-.7 1.55-1.04 3.3-1.04 5.28V647h-10.32Zm96.9 0v-56.4h21.44c6.24 0 11.54 1.1 15.92 3.28a22.62 22.62 0 0 1 10 9.6c2.3 4.16 3.44 9.25 3.44 15.28 0 6.03-1.15 11.15-3.44 15.36a22.62 22.62 0 0 1-10 9.6c-4.38 2.19-9.68 3.28-15.92 3.28h-21.44Zm10.56-8.8h10.24c6.3 0 11.04-1.6 14.24-4.8 3.2-3.25 4.8-8.13 4.8-14.64 0-6.5-1.6-11.36-4.8-14.56-3.2-3.2-7.95-4.8-14.24-4.8h-10.24v38.8Zm64.18 9.6c-2.88 0-5.47-.53-7.76-1.6a14.3 14.3 0 0 1-5.36-4.48 11.29 11.29 0 0 1-1.92-6.4c0-2.93.8-5.25 2.4-6.96 1.6-1.76 4.13-3.04 7.6-3.84 3.47-.8 8-1.2 13.6-1.2h4.72v6.08h-4.4c-2.5 0-4.64.1-6.4.32-1.7.16-3.12.45-4.24.88-1.07.37-1.87.9-2.4 1.6-.48.7-.72 1.55-.72 2.56a5.1 5.1 0 0 0 1.92 4.24c1.28 1.01 3.04 1.52 5.28 1.52a9.4 9.4 0 0 0 8.32-4.72 9.38 9.38 0 0 0 1.36-4.96v-8.96c0-2.67-.7-4.56-2.08-5.68-1.33-1.12-3.5-1.68-6.48-1.68-2.19 0-4.45.32-6.8.96-2.3.64-4.67 1.68-7.12 3.12l-2.88-7.12a24.25 24.25 0 0 1 5.28-2.56c1.97-.7 4.03-1.23 6.16-1.6 2.19-.43 4.3-.64 6.32-.64 3.79 0 6.99.59 9.6 1.76a12.35 12.35 0 0 1 5.92 5.36c1.33 2.4 2 5.52 2 9.36V647h-9.2v-8.24h.24a12.55 12.55 0 0 1-7.04 7.92c-1.7.75-3.68 1.12-5.92 1.12Zm33.12-.8v-39.52h9.84v8h-.4a13.63 13.63 0 0 1 5.6-6.48 15.82 15.82 0 0 1 8.48-2.32c3.2 0 5.87.61 8 1.84a10.95 10.95 0 0 1 4.8 5.44c1.07 2.45 1.6 5.55 1.6 9.28V647h-10.4v-23.28c0-1.97-.26-3.6-.8-4.88a5.47 5.47 0 0 0-2.32-2.88 8 8 0 0 0-4.16-.96c-1.92 0-3.62.43-5.12 1.28a9.15 9.15 0 0 0-3.52 3.6c-.8 1.55-1.2 3.3-1.2 5.28V647h-10.4Zm49.3 0v-39.52h9.76v8.08h-.4c.7-1.81 1.68-3.36 2.96-4.64a13.62 13.62 0 0 1 4.56-3.12 14.6 14.6 0 0 1 5.76-1.12c3.2 0 5.84.77 7.92 2.32a11.78 11.78 0 0 1 4.4 6.64h-.64a14.12 14.12 0 0 1 5.2-6.4c2.4-1.7 5.28-2.56 8.64-2.56 2.99 0 5.5.61 7.52 1.84a10.8 10.8 0 0 1 4.56 5.44c1.07 2.45 1.6 5.55 1.6 9.28V647h-10.32v-23.36c0-2.93-.5-5.1-1.52-6.48-.96-1.44-2.66-2.16-5.12-2.16-1.81 0-3.41.43-4.8 1.28a8.07 8.07 0 0 0-3.04 3.6c-.7 1.5-1.04 3.28-1.04 5.36V647h-10.24v-23.36c0-2.93-.53-5.1-1.6-6.48-1.01-1.44-2.7-2.16-5.04-2.16-1.81 0-3.38.45-4.72 1.36a8.8 8.8 0 0 0-3.04 3.6c-.7 1.55-1.04 3.3-1.04 5.28V647h-10.32Zm86.64.8c-2.88 0-5.46-.53-7.76-1.6a14.3 14.3 0 0 1-5.36-4.48 11.29 11.29 0 0 1-1.92-6.4c0-2.93.8-5.25 2.4-6.96 1.6-1.76 4.14-3.04 7.6-3.84 3.47-.8 8-1.2 13.6-1.2h4.72v6.08h-4.4c-2.5 0-4.64.1-6.4.32-1.7.16-3.12.45-4.24.88-1.06.37-1.86.9-2.4 1.6-.48.7-.72 1.55-.72 2.56a5.1 5.1 0 0 0 1.92 4.24c1.28 1.01 3.04 1.52 5.28 1.52a9.4 9.4 0 0 0 8.32-4.72 9.37 9.37 0 0 0 1.36-4.96v-8.96c0-2.67-.7-4.56-2.08-5.68-1.33-1.12-3.5-1.68-6.48-1.68-2.18 0-4.45.32-6.8.96-2.3.64-4.66 1.68-7.12 3.12l-2.88-7.12a24.29 24.29 0 0 1 5.28-2.56c1.98-.7 4.03-1.23 6.16-1.6 2.19-.43 4.3-.64 6.32-.64 3.79 0 6.99.59 9.6 1.76a12.35 12.35 0 0 1 5.92 5.36c1.34 2.4 2 5.52 2 9.36V647h-9.2v-8.24h.24a12.52 12.52 0 0 1-7.04 7.92c-1.7.75-3.68 1.12-5.92 1.12ZM710 647v-39.52h9.67v9.6h-.31c.8-3.1 2.29-5.52 4.48-7.28 2.24-1.76 5.12-2.75 8.63-2.96l3.76-.32.73 9.12-6.49.56c-3.25.32-5.73 1.36-7.44 3.12-1.7 1.76-2.55 4.1-2.55 7.04V647h-10.49Zm33.59 0v-56.4h10.4v33.84h.24l15.44-16.96h12.4l-19.44 21.04.08-3.92 20.64 22.4h-12.56l-16.56-17.44h-.24V647h-10.4Zm58.79.8a38.5 38.5 0 0 1-12.56-2.08 17.5 17.5 0 0 1-4.64-2.48l2.72-6.96c1.33.85 2.8 1.6 4.4 2.24 1.6.59 3.25 1.04 4.96 1.36 1.7.27 3.36.4 4.96.4 2.77 0 4.82-.37 6.16-1.12 1.38-.8 2.08-1.92 2.08-3.36 0-1.23-.43-2.16-1.28-2.8-.8-.64-2.1-1.1-3.92-1.36l-8.4-1.44c-3.52-.59-6.19-1.84-8-3.76a10.08 10.08 0 0 1-2.72-7.2c0-2.5.7-4.7 2.08-6.56a13.69 13.69 0 0 1 6-4.4c2.61-1.07 5.7-1.6 9.28-1.6 1.92 0 3.81.19 5.68.56 1.92.32 3.68.83 5.28 1.52 1.65.64 3.06 1.47 4.24 2.48l-2.88 6.96a14.04 14.04 0 0 0-3.6-2.16 23.87 23.87 0 0 0-4.32-1.36 20.6 20.6 0 0 0-4.32-.48c-2.78 0-4.83.43-6.16 1.28-1.33.8-2 1.92-2 3.36 0 1.17.37 2.1 1.12 2.8.8.64 2.02 1.1 3.68 1.36l8.24 1.44c3.78.64 6.61 1.87 8.48 3.68 1.87 1.76 2.8 4.16 2.8 7.2 0 2.61-.72 4.85-2.16 6.72a13.7 13.7 0 0 1-6.08 4.32c-2.56.96-5.6 1.44-9.12 1.44ZM184.66 727v-31.68h-7.68v-7.84h10.56l-2.88 2.8v-2.56c0-5.6 1.5-9.81 4.48-12.64 3.04-2.83 7.65-4.4 13.84-4.72l4.4-.24.72 7.92-4.64.24c-1.92.1-3.52.45-4.8 1.04a5.78 5.78 0 0 0-2.8 2.48 8.79 8.79 0 0 0-.88 4.24v2.48l-1.36-1.04h12.56v7.84h-11.2V727h-10.32Zm45.68.8c-4.16 0-7.8-.83-10.88-2.48a18.14 18.14 0 0 1-7.12-7.2c-1.66-3.1-2.48-6.75-2.48-10.96 0-4.16.82-7.76 2.48-10.8a17.6 17.6 0 0 1 7.12-7.12c3.09-1.7 6.72-2.56 10.88-2.56 4.2 0 7.84.85 10.88 2.56a17.1 17.1 0 0 1 7.04 7.12 22 22 0 0 1 2.56 10.8c0 4.21-.86 7.87-2.56 10.96-1.66 3.1-4 5.5-7.04 7.2-3.04 1.65-6.67 2.48-10.88 2.48Zm0-7.76c3.25 0 5.78-1.12 7.6-3.36 1.86-2.24 2.8-5.41 2.8-9.52 0-4.1-.94-7.25-2.8-9.44-1.82-2.19-4.35-3.28-7.6-3.28-3.2 0-5.74 1.1-7.6 3.28-1.87 2.19-2.8 5.33-2.8 9.44 0 4.1.93 7.28 2.8 9.52 1.86 2.24 4.4 3.36 7.6 3.36Zm-10.88 11.84-5.6-3.28 27.44-46 5.52 3.2-27.36 46.08Zm40.53-4.88v-39.52h9.68v9.6h-.32c.8-3.1 2.29-5.52 4.47-7.28 2.25-1.76 5.13-2.75 8.64-2.96l3.77-.32.71 9.12-6.48.56c-3.25.32-5.73 1.36-7.44 3.12-1.7 1.76-2.56 4.1-2.56 7.04V727H260Zm53.12.8c-4.69 0-8.72-.83-12.08-2.48a17.54 17.54 0 0 1-7.6-7.12c-1.76-3.1-2.64-6.75-2.64-10.96 0-4 .83-7.52 2.48-10.56 1.71-3.1 4.08-5.52 7.12-7.28a20.38 20.38 0 0 1 10.64-2.72c3.79 0 7.07.83 9.84 2.48a15.9 15.9 0 0 1 6.4 6.96c1.55 2.99 2.32 6.56 2.32 10.72v3.12h-30.48v-6.16h23.12l-1.28 1.28c0-3.68-.85-6.45-2.56-8.32-1.65-1.92-4.02-2.88-7.12-2.88-2.18 0-4.08.5-5.68 1.52a9.85 9.85 0 0 0-3.76 4.16 15.53 15.53 0 0 0-1.28 6.64v.8c0 2.93.48 5.36 1.44 7.28a9.09 9.09 0 0 0 4.32 4.16 16.4 16.4 0 0 0 7.04 1.36c2.14 0 4.3-.3 6.48-.88a16.99 16.99 0 0 0 6.08-2.96l2.88 7.04a21.61 21.61 0 0 1-7.28 3.6c-2.82.8-5.62 1.2-8.4 1.2Zm25.55-.8v-39.52h9.84v8h-.4a13.62 13.62 0 0 1 5.6-6.48 15.82 15.82 0 0 1 8.48-2.32c3.2 0 5.86.61 8 1.84a10.96 10.96 0 0 1 4.8 5.44c1.06 2.45 1.6 5.55 1.6 9.28V727h-10.4v-23.28c0-1.97-.27-3.6-.8-4.88a5.47 5.47 0 0 0-2.32-2.88 8 8 0 0 0-4.16-.96c-1.92 0-3.63.43-5.12 1.28a9.13 9.13 0 0 0-3.52 3.6c-.8 1.55-1.2 3.3-1.2 5.28V727h-10.4Zm64.74.8c-3.58 0-6.7-.85-9.36-2.56a17.2 17.2 0 0 1-6.24-7.2 25.35 25.35 0 0 1-2.16-10.8c0-4.16.72-7.76 2.16-10.8a17.4 17.4 0 0 1 6.16-7.2 16.84 16.84 0 0 1 9.28-2.56c3.25 0 6.05.77 8.4 2.32a12.4 12.4 0 0 1 5.04 6.08h-.48V670.6h10.4V727h-9.76v-8.24h.32a12.9 12.9 0 0 1-5.2 6.64c-2.4 1.6-5.26 2.4-8.56 2.4Zm2.8-7.92c3.14 0 5.62-1.1 7.44-3.28 1.81-2.19 2.72-5.3 2.72-9.36 0-4.1-.9-7.23-2.72-9.36-1.82-2.13-4.3-3.2-7.44-3.2-3.1 0-5.58 1.07-7.44 3.2-1.82 2.13-2.72 5.25-2.72 9.36 0 4.05.9 7.17 2.72 9.36a9.3 9.3 0 0 0 7.44 3.28Zm51.91 7.92c-4.69 0-8.72-.83-12.08-2.48a17.54 17.54 0 0 1-7.6-7.12c-1.76-3.1-2.64-6.75-2.64-10.96 0-4 .83-7.52 2.48-10.56 1.71-3.1 4.08-5.52 7.12-7.28a20.38 20.38 0 0 1 10.64-2.72c3.79 0 7.07.83 9.84 2.48a15.9 15.9 0 0 1 6.4 6.96c1.55 2.99 2.32 6.56 2.32 10.72v3.12h-30.48v-6.16h23.12l-1.28 1.28c0-3.68-.85-6.45-2.56-8.32-1.65-1.92-4.02-2.88-7.12-2.88-2.18 0-4.08.5-5.68 1.52a9.85 9.85 0 0 0-3.76 4.16 15.53 15.53 0 0 0-1.28 6.64v.8c0 2.93.48 5.36 1.44 7.28a9.09 9.09 0 0 0 4.32 4.16 16.4 16.4 0 0 0 7.04 1.36c2.14 0 4.3-.3 6.48-.88a16.99 16.99 0 0 0 6.08-2.96l2.88 7.04a21.61 21.61 0 0 1-7.28 3.6c-2.82.8-5.62 1.2-8.4 1.2Zm48.13 13.6v-53.92h9.75v8.16h-.32a12.5 12.5 0 0 1 5.13-6.56c2.5-1.6 5.4-2.4 8.72-2.4 3.57 0 6.66.85 9.27 2.56a16.75 16.75 0 0 1 6.17 7.12c1.49 3.04 2.24 6.67 2.24 10.88 0 4.05-.73 7.65-2.17 10.8a16.86 16.86 0 0 1-6.07 7.2 16.74 16.74 0 0 1-9.37 2.56 15.3 15.3 0 0 1-8.48-2.32c-2.34-1.55-4-3.57-4.96-6.08h.49v22h-10.4Zm20.4-21.52c3.14 0 5.62-1.1 7.44-3.28 1.8-2.19 2.71-5.33 2.71-9.44 0-4.1-.9-7.2-2.71-9.28-1.82-2.13-4.3-3.2-7.45-3.2-3.09 0-5.57 1.07-7.43 3.2-1.82 2.08-2.73 5.17-2.73 9.28 0 4.1.91 7.25 2.73 9.44a9.3 9.3 0 0 0 7.43 3.28Zm29.75 7.12v-39.52h9.68v9.6h-.32c.8-3.1 2.3-5.52 4.48-7.28 2.24-1.76 5.12-2.75 8.64-2.96l3.76-.32.72 9.12-6.48.56c-3.25.32-5.73 1.36-7.44 3.12-1.7 1.76-2.56 4.1-2.56 7.04V727H556.4Zm32.88-47.68v-10.24h11.75v10.24h-11.75Zm.72 47.68v-39.52h10.4V727h-10.4Zm36.83.8a38.49 38.49 0 0 1-12.56-2.08 17.49 17.49 0 0 1-4.64-2.48l2.72-6.96c1.33.85 2.8 1.6 4.4 2.24a30.9 30.9 0 0 0 4.96 1.36c1.7.27 3.36.4 4.96.4 2.77 0 4.83-.37 6.16-1.12 1.39-.8 2.08-1.92 2.08-3.36 0-1.23-.42-2.16-1.28-2.8-.8-.64-2.1-1.1-3.92-1.36l-8.4-1.44c-3.52-.59-6.18-1.84-8-3.76a10.07 10.07 0 0 1-2.72-7.2c0-2.5.7-4.7 2.08-6.56a13.68 13.68 0 0 1 6-4.4c2.62-1.07 5.7-1.6 9.28-1.6 1.92 0 3.81.19 5.68.56 1.92.32 3.68.83 5.28 1.52 1.65.64 3.07 1.47 4.24 2.48l-2.88 6.96a14.07 14.07 0 0 0-3.6-2.16 23.92 23.92 0 0 0-4.32-1.36c-1.5-.32-2.93-.48-4.32-.48-2.77 0-4.82.43-6.16 1.28-1.33.8-2 1.92-2 3.36 0 1.17.38 2.1 1.12 2.8.8.64 2.03 1.1 3.68 1.36l8.24 1.44c3.79.64 6.62 1.87 8.48 3.68 1.87 1.76 2.8 4.16 2.8 7.2 0 2.61-.72 4.85-2.16 6.72a13.71 13.71 0 0 1-6.08 4.32c-2.56.96-5.6 1.44-9.12 1.44Zm26.13 13.6v-53.92h9.76v8.16h-.32a12.51 12.51 0 0 1 5.12-6.56c2.51-1.6 5.42-2.4 8.72-2.4 3.58 0 6.67.85 9.28 2.56a16.75 16.75 0 0 1 6.16 7.12c1.5 3.04 2.24 6.67 2.24 10.88 0 4.05-.72 7.65-2.16 10.8a16.85 16.85 0 0 1-6.08 7.2 16.73 16.73 0 0 1-9.36 2.56 15.3 15.3 0 0 1-8.48-2.32c-2.34-1.55-4-3.57-4.96-6.08h.48v22h-10.4Zm20.4-21.52c3.15 0 5.63-1.1 7.44-3.28 1.82-2.19 2.72-5.33 2.72-9.44 0-4.1-.9-7.2-2.72-9.28-1.81-2.13-4.29-3.2-7.44-3.2-3.09 0-5.57 1.07-7.44 3.2-1.81 2.08-2.72 5.17-2.72 9.28 0 4.1.91 7.25 2.72 9.44a9.3 9.3 0 0 0 7.44 3.28Zm48.08 7.92c-4.16 0-7.79-.83-10.88-2.48a18.13 18.13 0 0 1-7.12-7.2c-1.65-3.1-2.48-6.72-2.48-10.88 0-4.21.83-7.84 2.48-10.88a17.6 17.6 0 0 1 7.12-7.12c3.1-1.7 6.72-2.56 10.88-2.56 4.21 0 7.84.85 10.88 2.56a17.1 17.1 0 0 1 7.04 7.12c1.7 3.1 2.56 6.72 2.56 10.88 0 4.16-.85 7.79-2.56 10.88-1.65 3.1-4 5.5-7.04 7.2-3.04 1.65-6.67 2.48-10.88 2.48Zm0-8.16c3.15 0 5.63-1.07 7.44-3.2 1.81-2.19 2.72-5.28 2.72-9.28 0-4-.9-7.04-2.72-9.12-1.81-2.13-4.3-3.2-7.44-3.2-3.1 0-5.57 1.07-7.44 3.2-1.81 2.08-2.72 5.12-2.72 9.12 0 4 .9 7.1 2.72 9.28 1.87 2.13 4.35 3.2 7.44 3.2Zm29.65 7.36v-39.52h9.68v9.6h-.32c.8-3.1 2.3-5.52 4.48-7.28 2.24-1.76 5.12-2.75 8.64-2.96l3.76-.32.72 9.12-6.48.56c-3.25.32-5.73 1.36-7.44 3.12-1.7 1.76-2.56 4.1-2.56 7.04V727h-10.48Zm54.34.8c-5.39 0-9.42-1.33-12.08-4-2.62-2.72-3.92-6.64-3.92-11.76v-16.48h-7.6v-8.08h7.92v-11.44h10.08v11.44h12.72v8.08h-12.72v16c0 2.56.58 4.48 1.76 5.76 1.17 1.23 3.01 1.84 5.52 1.84.9 0 1.78-.08 2.64-.24.9-.21 1.81-.45 2.72-.72l1.52 7.76a15.28 15.28 0 0 1-4 1.36c-1.5.32-3.02.48-4.56.48Zm28.16 0c-2.88 0-5.47-.53-7.76-1.6a14.3 14.3 0 0 1-5.36-4.48 11.29 11.29 0 0 1-1.92-6.4c0-2.93.8-5.25 2.4-6.96 1.6-1.76 4.13-3.04 7.6-3.84 3.47-.8 8-1.2 13.6-1.2h4.72v6.08h-4.4c-2.5 0-4.64.1-6.4.32-1.7.16-3.12.45-4.24.88-1.07.37-1.87.9-2.4 1.6-.48.7-.72 1.55-.72 2.56a5.1 5.1 0 0 0 1.92 4.24c1.28 1.01 3.04 1.52 5.28 1.52a9.4 9.4 0 0 0 8.32-4.72 9.37 9.37 0 0 0 1.36-4.96v-8.96c0-2.67-.7-4.56-2.08-5.68-1.33-1.12-3.5-1.68-6.48-1.68-2.19 0-4.45.32-6.8.96a30.2 30.2 0 0 0-7.12 3.12l-2.88-7.12a24.29 24.29 0 0 1 5.28-2.56c1.97-.7 4.03-1.23 6.16-1.6 2.19-.43 4.3-.64 6.32-.64 3.79 0 6.99.59 9.6 1.76a12.35 12.35 0 0 1 5.92 5.36c1.33 2.4 2 5.52 2 9.36V727h-9.2v-8.24h.24a12.52 12.52 0 0 1-7.04 7.92c-1.7.75-3.68 1.12-5.92 1.12Zm46.88 0c-4.58 0-8.02-1.23-10.32-3.68-2.29-2.5-3.44-6.13-3.44-10.88V670.6h10.4v42c0 1.5.22 2.75.64 3.76a4.88 4.88 0 0 0 1.92 2.32c.86.53 1.9.8 3.12.8.7 0 1.36-.03 2-.08.64-.1 1.28-.24 1.92-.4l.16 7.92c-1.06.27-2.1.48-3.12.64-1.01.16-2.1.24-3.28.24ZM750.02 541.8c-6.48 0-12.3-1.2-17.46-3.6a32.18 32.18 0 0 1-12.06-10.08 25.4 25.4 0 0 1-4.32-14.4c0-6.6 1.8-11.82 5.4-15.66 3.6-3.96 9.3-6.84 17.1-8.64 7.8-1.8 18-2.7 30.6-2.7h10.62v13.68H770c-5.64 0-10.44.24-14.4.72a36.84 36.84 0 0 0-9.54 1.98c-2.4.84-4.2 2.04-5.4 3.6a9.87 9.87 0 0 0-1.62 5.76c0 4.08 1.44 7.26 4.32 9.54 2.88 2.28 6.84 3.42 11.88 3.42 4.08 0 7.74-.96 10.98-2.88a21.74 21.74 0 0 0 7.74-7.74 21.09 21.09 0 0 0 3.06-11.16v-20.16c0-6-1.56-10.26-4.68-12.78-3-2.52-7.86-3.78-14.58-3.78-4.92 0-10.02.72-15.3 2.16a67.94 67.94 0 0 0-16.02 7.02l-6.48-16.02a54.62 54.62 0 0 1 11.88-5.76 86.95 86.95 0 0 1 13.86-3.6 74.24 74.24 0 0 1 14.22-1.44c8.52 0 15.72 1.32 21.6 3.96a27.79 27.79 0 0 1 13.32 12.06c3 5.4 4.5 12.42 4.5 21.06V540h-20.7v-18.54h.54a28.2 28.2 0 0 1-5.94 10.62 28.9 28.9 0 0 1-9.9 7.2c-3.84 1.68-8.28 2.52-13.32 2.52Zm10.26-100.62c-4.44 0-8.46-1.02-12.06-3.06a22.43 22.43 0 0 1-11.52-19.8 22.1 22.1 0 0 1 3.06-11.7 21.15 21.15 0 0 1 8.46-8.1 24.03 24.03 0 0 1 12.06-3.06c4.44 0 8.46 1.02 12.06 3.06a21.15 21.15 0 0 1 8.46 8.1 22.7 22.7 0 0 1 3.06 11.7 22.36 22.36 0 0 1-11.52 19.8 23.4 23.4 0 0 1-12.06 3.06Zm0-10.98c3.48 0 6.3-1.14 8.46-3.42a11.71 11.71 0 0 0 3.42-8.64 10.9 10.9 0 0 0-3.42-8.28c-2.16-2.28-4.98-3.42-8.46-3.42a11.5 11.5 0 0 0-8.46 3.42 10.9 10.9 0 0 0-3.42 8.28 11.71 11.71 0 0 0 11.88 12.06ZM824.55 540v-88.92h21.78v21.6h-.72c1.8-6.96 5.16-12.42 10.08-16.38 5.04-3.96 11.52-6.18 19.44-6.66l8.46-.72 1.62 20.52-14.58 1.26c-7.32.72-12.9 3.06-16.74 7.02-3.84 3.96-5.76 9.24-5.76 15.84V540h-23.58Z"/><defs><linearGradient id="a" x1="-13.08" x2="858.35" y1="247.25" y2="247.25" gradientUnits="userSpaceOnUse"><stop stop-color="#076B9C"/><stop offset="1" stop-color="#77AA43"/></linearGradient><linearGradient id="b" x1="50.78" x2="746.99" y1="355.5" y2="355.5" gradientUnits="userSpaceOnUse"><stop stop-color="#076B9C"/><stop offset=".8" stop-color="#77AA43"/></linearGradient></defs></svg>