<svg width="25" height="25" viewBox="0 0 25 25" fill="none" xmlns="http://www.w3.org/2000/svg">
<g clip-path="url(#clip0_1_5545)">
<path d="M21.1489 6.44725L19.5914 8.6382C20.4848 10.0701 20.9592 11.7133 20.9592 13.4035C20.9592 18.4192 16.8322 22.496 11.7564 22.496C6.68069 22.496 2.54578 18.4192 2.54578 13.4035C2.54578 8.3878 6.67278 4.31107 11.7564 4.31107C13.3456 4.31107 14.911 4.71796 16.2787 5.48479L17.9786 3.56771C16.1127 2.41746 13.9622 1.80713 11.7485 1.80713C5.27339 1.80713 0 7.01063 0 13.4035C0 16.0483 0.956643 18.6696 2.63274 20.7197L3.97679 22.1047C6.11145 23.9201 8.92603 24.9999 11.7485 24.9999C18.2236 24.9999 23.4891 19.7964 23.4891 13.4035C23.497 10.8683 22.6827 8.46605 21.1489 6.44725Z" fill="url(#paint0_linear_1_5545)"/>
<path d="M5.11475 9.88276C5.11475 9.88276 9.51056 14.2255 11.7638 19.742C11.7638 19.742 19.5118 4.4445 24.9987 0C24.9987 0 20.5871 1.55714 11.7638 12.4024C11.7638 12.4024 7.81074 9.88276 5.11475 9.88276Z" fill="url(#paint1_linear_1_5545)"/>
</g>
<defs>
<linearGradient id="paint0_linear_1_5545" x1="23.9602" y1="0.918632" x2="-10.5254" y2="26.8873" gradientUnits="userSpaceOnUse">
<stop stop-color="#56924B"/>
<stop offset="1" stop-color="#076B9C"/>
</linearGradient>
<linearGradient id="paint1_linear_1_5545" x1="25.3974" y1="-0.756302" x2="-3.91196" y2="21.1926" gradientUnits="userSpaceOnUse">
<stop stop-color="#56924B"/>
<stop offset="1" stop-color="#076B9C"/>
</linearGradient>
<clipPath id="clip0_1_5545">
<rect width="25" height="25" fill="white"/>
</clipPath>
</defs>
</svg>
