<svg width="32" height="32" viewBox="0 0 32 32" fill="none" xmlns="http://www.w3.org/2000/svg">
<g clip-path="url(#clip0_154_12052)">
<path d="M15.9504 31.9645C7.17157 31.9645 0.0300293 24.8209 0.0300293 16.0393C0.0300293 7.25791 7.17157 0.114258 15.9504 0.114258C24.7293 0.114258 31.8708 7.25791 31.8708 16.0393C31.8708 24.8209 24.7293 31.9645 15.9504 31.9645ZM15.9504 1.19532C7.76814 1.19532 1.11077 7.85466 1.11077 16.0393C1.11077 24.224 7.76814 30.8834 15.9504 30.8834C24.1327 30.8834 30.7901 24.224 30.7901 16.0393C30.7901 7.85466 24.1327 1.19532 15.9504 1.19532Z" fill="#076B9C"/>
<path d="M25.6349 12.8513C25.5139 11.6827 25.2535 10.3908 24.2948 9.71187C23.5524 9.1854 22.5765 9.16595 21.6653 9.16703C19.7395 9.1681 17.8126 9.17026 15.8867 9.17134C14.0343 9.17351 12.1819 9.17459 10.3295 9.17676C9.55567 9.17784 8.80347 9.11731 8.08477 9.45243C7.46768 9.74 6.98458 10.287 6.69387 10.8956C6.29075 11.7421 6.20645 12.701 6.15781 13.6372C6.06812 15.342 6.07785 17.0512 6.18483 18.755C6.26373 19.9982 6.46366 21.3721 7.42444 22.1647C8.27607 22.8663 9.47785 22.9008 10.5824 22.9019C14.0883 22.9051 17.5953 22.9085 21.1022 22.9105C21.5518 22.9117 22.021 22.9031 22.4792 22.8532C23.3805 22.7559 24.2397 22.4976 24.819 21.8295C25.4036 21.156 25.5539 20.2187 25.6426 19.3312C25.8586 17.1776 25.8566 15.0037 25.6349 12.8513ZM13.8592 19.0576V13.0199L19.0856 16.0382L13.8592 19.0576Z" fill="#076B9C"/>
</g>
<defs>
<clipPath id="clip0_154_12052">
<rect width="32" height="32" fill="white"/>
</clipPath>
</defs>
</svg>
